<svg xmlns="http://www.w3.org/2000/svg" xmlns:xlink="http://www.w3.org/1999/xlink" width="600" zoomAndPan="magnify" viewBox="0 0 450 149.999998" height="200" preserveAspectRatio="xMidYMid meet" version="1.0"><defs><g/><clipPath id="2f3a347485"><path d="M 42 36 L 93.75 36 L 93.75 142.5 L 42 142.5 Z M 42 36 " clip-rule="nonzero"/></clipPath><clipPath id="51a731775a"><path d="M 52 7.5 L 79 7.5 L 79 34 L 52 34 Z M 52 7.5 " clip-rule="nonzero"/></clipPath><clipPath id="7e30310b10"><path d="M 0.234375 32 L 49 32 L 49 142.5 L 0.234375 142.5 Z M 0.234375 32 " clip-rule="nonzero"/></clipPath><clipPath id="4e2efa2ec1"><path d="M 332.695312 41 L 349 41 L 349 94 L 332.695312 94 Z M 332.695312 41 " clip-rule="nonzero"/></clipPath><clipPath id="435c2a9f3f"><path d="M 345 79 L 375 79 L 375 142.5 L 345 142.5 Z M 345 79 " clip-rule="nonzero"/></clipPath><clipPath id="318f2169b9"><path d="M 345 7.5 L 375 7.5 L 375 23 L 345 23 Z M 345 7.5 " clip-rule="nonzero"/></clipPath></defs><g clip-path="url(#2f3a347485)"><path fill="#fb7a53" d="M 93.859375 75.648438 C 93.859375 78.980469 93.753906 82.605469 93.523438 86.550781 C 93.378906 88.96875 91.378906 90.835938 88.992188 90.835938 C 88.902344 90.835938 88.8125 90.835938 88.722656 90.828125 C 86.21875 90.679688 84.308594 88.527344 84.453125 86.015625 C 84.675781 82.230469 84.777344 78.78125 84.777344 75.648438 C 84.796875 61.863281 82.792969 54.117188 80.820312 50.078125 L 80.820312 135.453125 C 80.820312 139.34375 77.679688 142.492188 73.804688 142.492188 C 69.925781 142.492188 66.78125 139.34375 66.78125 135.453125 L 66.78125 84.078125 L 64.152344 84.078125 L 64.152344 135.453125 C 64.152344 139.34375 61.007812 142.492188 57.132812 142.492188 C 53.257812 142.492188 50.113281 139.34375 50.113281 135.453125 L 50.113281 49.0625 C 49.699219 49.503906 49.265625 49.96875 48.816406 50.46875 C 47.339844 52.082031 45.660156 53.964844 43.6875 55.90625 L 42.710938 43.675781 C 44.046875 42.21875 45.371094 40.832031 46.839844 39.605469 C 47.859375 38.761719 48.964844 37.984375 50.261719 37.378906 C 51.320312 36.882812 52.539062 36.523438 53.824219 36.414062 C 54.046875 36.378906 54.269531 36.355469 54.5 36.355469 L 76.433594 36.355469 C 76.503906 36.355469 76.574219 36.363281 76.640625 36.363281 C 77.667969 36.378906 79.367188 36.597656 81.308594 37.578125 C 84.359375 39.097656 87.652344 42.417969 89.957031 48.300781 C 92.289062 54.210938 93.855469 62.75 93.859375 75.648438 Z M 93.859375 75.648438 " fill-opacity="1" fill-rule="nonzero"/></g><path fill="#fb7a53" d="M 1.542969 63.84375 C 1.75 61.808594 3.265625 60.222656 5.167969 59.839844 L 4.472656 68.5625 C 2.585938 67.855469 1.332031 65.949219 1.542969 63.84375 Z M 1.542969 63.84375 " fill-opacity="1" fill-rule="nonzero"/><path fill="#fb7a53" d="M 27.382812 56.683594 L 35.777344 56.683594 L 36.207031 62.074219 C 36.015625 62.203125 35.828125 62.332031 35.632812 62.457031 C 29.835938 66.226562 22.199219 69.046875 12.398438 69.148438 L 13.125 60.027344 C 18.902344 59.847656 23.398438 58.589844 27.15625 56.796875 C 27.234375 56.761719 27.304688 56.71875 27.382812 56.683594 Z M 27.382812 56.683594 " fill-opacity="1" fill-rule="nonzero"/><g clip-path="url(#51a731775a)"><path fill="#fb7a53" d="M 52.695312 20.304688 C 52.695312 21.144531 52.777344 21.980469 52.941406 22.804688 C 53.101562 23.628906 53.34375 24.429688 53.667969 25.207031 C 53.988281 25.984375 54.378906 26.722656 54.847656 27.421875 C 55.3125 28.121094 55.84375 28.765625 56.433594 29.359375 C 57.027344 29.957031 57.671875 30.484375 58.371094 30.953125 C 59.070312 31.421875 59.804688 31.816406 60.578125 32.136719 C 61.355469 32.457031 62.152344 32.703125 62.976562 32.867188 C 63.796875 33.027344 64.628906 33.109375 65.46875 33.109375 C 66.304688 33.109375 67.136719 33.027344 67.960938 32.867188 C 68.78125 32.703125 69.582031 32.457031 70.355469 32.136719 C 71.132812 31.816406 71.867188 31.421875 72.566406 30.953125 C 73.261719 30.484375 73.90625 29.957031 74.5 29.359375 C 75.09375 28.765625 75.621094 28.121094 76.089844 27.421875 C 76.554688 26.722656 76.949219 25.984375 77.269531 25.207031 C 77.589844 24.429688 77.832031 23.628906 77.996094 22.804688 C 78.160156 21.980469 78.242188 21.144531 78.242188 20.304688 C 78.242188 19.464844 78.160156 18.632812 77.996094 17.808594 C 77.832031 16.984375 77.589844 16.183594 77.269531 15.40625 C 76.949219 14.628906 76.554688 13.890625 76.089844 13.191406 C 75.621094 12.492188 75.09375 11.84375 74.5 11.25 C 73.90625 10.65625 73.261719 10.125 72.566406 9.65625 C 71.867188 9.191406 71.132812 8.796875 70.355469 8.476562 C 69.582031 8.152344 68.78125 7.910156 67.960938 7.746094 C 67.136719 7.582031 66.304688 7.5 65.46875 7.5 C 64.628906 7.5 63.796875 7.582031 62.976562 7.746094 C 62.152344 7.910156 61.355469 8.152344 60.578125 8.476562 C 59.804688 8.796875 59.070312 9.191406 58.371094 9.65625 C 57.671875 10.125 57.027344 10.65625 56.433594 11.25 C 55.84375 11.84375 55.3125 12.492188 54.847656 13.191406 C 54.378906 13.890625 53.988281 14.628906 53.667969 15.40625 C 53.34375 16.183594 53.101562 16.984375 52.941406 17.808594 C 52.777344 18.632812 52.695312 19.464844 52.695312 20.304688 Z M 52.695312 20.304688 " fill-opacity="1" fill-rule="nonzero"/></g><g clip-path="url(#7e30310b10)"><path fill="#fb7a53" d="M 48.832031 141.757812 L 44.300781 142.121094 L 43.070312 126.6875 L 6.097656 126.6875 L 4.867188 142.121094 L 0.339844 141.757812 L 8.699219 36.988281 L 5.28125 36.988281 L 5.28125 32.433594 L 43.886719 32.433594 L 43.886719 36.988281 L 40.46875 36.988281 Z M 39.257812 78.878906 L 9.914062 78.878906 L 8.089844 101.714844 L 41.078125 101.714844 Z M 42.871094 124.195312 L 41.277344 104.207031 L 7.890625 104.207031 L 6.296875 124.195312 Z M 10.113281 76.390625 L 39.058594 76.390625 L 37.347656 54.976562 L 11.820312 54.976562 Z M 13.257812 36.988281 L 12.019531 52.484375 L 37.148438 52.484375 L 35.914062 36.988281 Z M 13.257812 36.988281 " fill-opacity="1" fill-rule="nonzero"/></g><path fill="#545454" d="M 384.070312 46.152344 L 385.839844 46.152344 L 385.839844 49.382812 C 386.566406 50.925781 387.207031 52.609375 387.769531 54.433594 L 387.769531 49.628906 L 409.417969 62.433594 L 390.574219 73.578125 C 390.605469 74.355469 390.628906 75.140625 390.644531 75.945312 L 411.453125 63.636719 L 435.136719 77.644531 L 435.136719 78.46875 L 390.671875 78.46875 C 390.671875 78.519531 390.671875 78.566406 390.671875 78.613281 C 390.671875 79.246094 390.664062 79.894531 390.65625 80.542969 L 435.136719 80.542969 L 435.136719 100.496094 L 387.769531 100.496094 L 387.769531 94.480469 C 387.195312 94.984375 386.546875 95.402344 385.839844 95.71875 L 385.839844 100.496094 L 378.148438 100.496094 L 378.148438 102.671875 L 451.039062 102.671875 L 451.039062 100.496094 L 437.066406 100.496094 L 437.066406 80.542969 L 439.816406 80.542969 L 439.816406 78.46875 L 437.066406 78.46875 L 437.066406 46.152344 L 439.816406 46.152344 L 439.816406 44.078125 L 437.066406 44.078125 L 437.066406 12.714844 L 439.816406 12.714844 L 439.816406 10.640625 L 383.089844 10.640625 L 383.089844 12.714844 L 385.839844 12.714844 L 385.839844 44.078125 L 383.089844 44.078125 L 383.089844 44.730469 C 383.367188 45.101562 383.636719 45.476562 383.898438 45.871094 C 383.957031 45.960938 384.011719 46.058594 384.070312 46.152344 Z M 413.492188 62.433594 L 435.136719 49.628906 L 435.136719 75.238281 Z M 435.136719 47.21875 L 411.453125 61.226562 L 387.769531 47.21875 L 387.769531 46.152344 L 435.136719 46.152344 Z M 387.769531 16.191406 L 409.414062 28.996094 L 387.769531 41.800781 Z M 435.136719 41.800781 L 413.492188 28.996094 L 435.136719 16.191406 Z M 434.917969 44.078125 L 387.992188 44.078125 L 411.453125 30.199219 Z M 435.136719 12.714844 L 435.136719 13.78125 L 411.453125 27.789062 L 387.769531 13.78125 L 387.769531 12.714844 Z M 435.136719 12.714844 " fill-opacity="1" fill-rule="nonzero"/><g clip-path="url(#4e2efa2ec1)"><path fill="#545454" d="M 337.523438 93.128906 C 337.609375 93.128906 337.695312 93.125 337.785156 93.121094 C 340.191406 92.980469 342.027344 90.921875 341.882812 88.523438 C 341.671875 84.910156 341.574219 81.613281 341.574219 78.617188 C 341.558594 65.449219 343.480469 58.054688 345.375 54.195312 L 345.375 68.355469 C 349.820312 59.355469 348.195312 45.367188 347.59375 41.300781 C 346.800781 41.46875 345.886719 41.761719 344.910156 42.253906 C 341.976562 43.703125 338.8125 46.875 336.597656 52.496094 C 334.359375 58.136719 332.855469 66.296875 332.847656 78.617188 C 332.847656 81.800781 332.953125 85.261719 333.171875 89.035156 C 333.308594 91.34375 335.230469 93.128906 337.523438 93.128906 Z M 337.523438 93.128906 " fill-opacity="1" fill-rule="nonzero"/></g><g clip-path="url(#435c2a9f3f)"><path fill="#545454" d="M 374.878906 79.835938 L 345.375 79.835938 L 345.375 135.804688 C 345.375 139.515625 348.394531 142.523438 352.117188 142.523438 C 355.839844 142.523438 358.863281 139.515625 358.863281 135.804688 L 358.863281 86.722656 L 361.390625 86.722656 L 361.390625 135.804688 C 361.390625 139.515625 364.410156 142.523438 368.132812 142.523438 C 371.855469 142.523438 374.878906 139.515625 374.878906 135.804688 Z M 374.878906 79.835938 " fill-opacity="1" fill-rule="nonzero"/></g><path fill="#545454" d="M 374.878906 68.359375 L 374.878906 54.21875 C 375.199219 54.878906 375.527344 55.636719 375.847656 56.523438 C 377.386719 60.769531 378.679688 67.738281 378.675781 78.617188 C 378.675781 81.617188 378.578125 84.910156 378.363281 88.527344 C 378.226562 90.925781 380.0625 92.980469 382.46875 93.121094 C 382.554688 93.125 382.640625 93.128906 382.726562 93.128906 C 385.019531 93.128906 386.941406 91.34375 387.078125 89.035156 C 387.296875 85.261719 387.402344 81.800781 387.402344 78.617188 C 387.378906 62.207031 384.75 53.125 381.164062 47.664062 C 379.371094 44.953125 377.277344 43.214844 375.339844 42.253906 C 374.363281 41.761719 373.449219 41.46875 372.65625 41.300781 C 372.054688 45.367188 370.429688 59.355469 374.878906 68.359375 Z M 374.878906 68.359375 " fill-opacity="1" fill-rule="nonzero"/><path fill="#545454" d="M 360.125 52.699219 C 365.09375 52.699219 368.5 44.089844 369.523438 41.132812 L 350.726562 41.132812 C 351.75 44.089844 355.15625 52.699219 360.125 52.699219 Z M 360.125 52.699219 " fill-opacity="1" fill-rule="nonzero"/><path fill="#545454" d="M 362.128906 37.871094 C 367.953125 36.917969 372.398438 31.878906 372.398438 25.804688 C 372.398438 25.207031 372.351562 24.621094 372.269531 24.050781 L 347.980469 24.050781 C 347.898438 24.621094 347.851562 25.207031 347.851562 25.804688 C 347.851562 31.878906 352.296875 36.917969 358.125 37.871094 C 358.773438 37.976562 359.445312 38.035156 360.125 38.035156 C 360.808594 38.035156 361.476562 37.980469 362.128906 37.871094 Z M 362.128906 37.871094 " fill-opacity="1" fill-rule="nonzero"/><g clip-path="url(#318f2169b9)"><path fill="#545454" d="M 347.289062 19.679688 C 346.382812 19.679688 345.644531 20.414062 345.644531 21.320312 C 345.644531 22.226562 346.382812 22.960938 347.289062 22.960938 L 372.960938 22.960938 C 373.871094 22.960938 374.605469 22.226562 374.605469 21.320312 C 374.605469 20.414062 373.871094 19.679688 372.960938 19.679688 L 372.734375 19.679688 C 372.722656 19.3125 372.699219 18.949219 372.660156 18.59375 C 372.242188 14.867188 370.191406 11.632812 367.234375 9.621094 L 367.234375 10.625 C 367.234375 11.339844 366.652344 11.925781 365.933594 11.925781 C 365.214844 11.925781 364.628906 11.34375 364.628906 10.625 L 364.628906 8.261719 C 363.617188 7.875 362.542969 7.613281 361.425781 7.5 L 361.425781 10.625 C 361.425781 11.339844 360.84375 11.925781 360.125 11.925781 C 359.40625 11.925781 358.824219 11.34375 358.824219 10.625 L 358.824219 7.5 C 357.703125 7.613281 356.628906 7.875 355.617188 8.261719 L 355.617188 10.625 C 355.617188 11.339844 355.035156 11.925781 354.316406 11.925781 C 353.597656 11.925781 353.015625 11.34375 353.015625 10.625 L 353.015625 9.621094 C 350.058594 11.636719 348.007812 14.867188 347.589844 18.59375 C 347.550781 18.949219 347.527344 19.3125 347.515625 19.679688 Z M 347.289062 19.679688 " fill-opacity="1" fill-rule="nonzero"/></g><g fill="#fb7a53" fill-opacity="1"><g transform="translate(105.672661, 56.644203)"><g><path d="M 4.140625 0 C 3.734375 0 3.398438 -0.132812 3.140625 -0.40625 C 2.878906 -0.6875 2.75 -1.023438 2.75 -1.421875 L 2.75 -19.984375 C 2.75 -20.390625 2.882812 -20.726562 3.15625 -21 C 3.425781 -21.28125 3.753906 -21.421875 4.140625 -21.421875 C 4.546875 -21.421875 4.882812 -21.28125 5.15625 -21 C 5.425781 -20.726562 5.5625 -20.390625 5.5625 -19.984375 L 5.5625 -2.859375 L 15.5 -2.859375 C 15.894531 -2.859375 16.226562 -2.71875 16.5 -2.4375 C 16.78125 -2.164062 16.921875 -1.828125 16.921875 -1.421875 C 16.921875 -1.023438 16.78125 -0.6875 16.5 -0.40625 C 16.226562 -0.132812 15.894531 0 15.5 0 Z M 4.140625 0 "/></g></g></g><g fill="#fb7a53" fill-opacity="1"><g transform="translate(123.277473, 56.644203)"><g><path d="M 18.75 -2 C 18.84375 -1.757812 18.890625 -1.5625 18.890625 -1.40625 C 18.890625 -1.019531 18.753906 -0.6875 18.484375 -0.40625 C 18.210938 -0.132812 17.875 0 17.46875 0 C 17.195312 0 16.9375 -0.078125 16.6875 -0.234375 C 16.4375 -0.390625 16.257812 -0.601562 16.15625 -0.875 L 14.609375 -4.71875 L 4.765625 -4.71875 L 3.203125 -0.875 C 3.078125 -0.601562 2.894531 -0.390625 2.65625 -0.234375 C 2.414062 -0.078125 2.160156 0 1.890625 0 C 1.484375 0 1.148438 -0.140625 0.890625 -0.421875 C 0.628906 -0.703125 0.5 -1.035156 0.5 -1.421875 C 0.5 -1.609375 0.539062 -1.820312 0.625 -2.0625 L 8.34375 -20.453125 C 8.613281 -21.097656 9.0625 -21.421875 9.6875 -21.421875 C 10.34375 -21.421875 10.789062 -21.097656 11.03125 -20.453125 Z M 5.734375 -7.078125 L 13.65625 -7.078125 L 9.734375 -16.84375 Z M 5.734375 -7.078125 "/></g></g></g><g fill="#fb7a53" fill-opacity="1"><g transform="translate(142.555022, 56.644203)"><g/></g></g><g fill="#fb7a53" fill-opacity="1"><g transform="translate(150.58962, 56.644203)"><g><path d="M 9.546875 0.28125 C 7.773438 0.28125 6.160156 -0.117188 4.703125 -0.921875 C 3.242188 -1.734375 2.242188 -2.785156 1.703125 -4.078125 C 1.609375 -4.304688 1.5625 -4.492188 1.5625 -4.640625 C 1.5625 -4.910156 1.660156 -5.148438 1.859375 -5.359375 C 2.066406 -5.566406 2.34375 -5.707031 2.6875 -5.78125 C 2.738281 -5.800781 2.832031 -5.8125 2.96875 -5.8125 C 3.257812 -5.8125 3.535156 -5.722656 3.796875 -5.546875 C 4.066406 -5.378906 4.265625 -5.148438 4.390625 -4.859375 C 4.710938 -4.140625 5.359375 -3.53125 6.328125 -3.03125 C 7.296875 -2.539062 8.367188 -2.296875 9.546875 -2.296875 C 10.910156 -2.296875 12.066406 -2.613281 13.015625 -3.25 C 13.972656 -3.882812 14.453125 -4.75 14.453125 -5.84375 C 14.453125 -6.882812 14.046875 -7.773438 13.234375 -8.515625 C 12.429688 -9.253906 11.207031 -9.707031 9.5625 -9.875 C 7.300781 -10.09375 5.519531 -10.753906 4.21875 -11.859375 C 2.925781 -12.960938 2.28125 -14.347656 2.28125 -16.015625 C 2.28125 -17.179688 2.613281 -18.1875 3.28125 -19.03125 C 3.945312 -19.882812 4.859375 -20.535156 6.015625 -20.984375 C 7.179688 -21.429688 8.484375 -21.65625 9.921875 -21.65625 C 11.492188 -21.65625 12.816406 -21.335938 13.890625 -20.703125 C 14.972656 -20.066406 15.890625 -19.15625 16.640625 -17.96875 C 16.859375 -17.613281 16.96875 -17.28125 16.96875 -16.96875 C 16.96875 -16.570312 16.785156 -16.242188 16.421875 -15.984375 C 16.222656 -15.859375 15.988281 -15.796875 15.71875 -15.796875 C 15.4375 -15.796875 15.175781 -15.863281 14.9375 -16 C 14.707031 -16.132812 14.523438 -16.320312 14.390625 -16.5625 C 13.898438 -17.382812 13.285156 -18.007812 12.546875 -18.4375 C 11.804688 -18.863281 10.867188 -19.078125 9.734375 -19.078125 C 8.347656 -19.078125 7.222656 -18.804688 6.359375 -18.265625 C 5.503906 -17.734375 5.078125 -16.957031 5.078125 -15.9375 C 5.078125 -14.976562 5.457031 -14.179688 6.21875 -13.546875 C 6.988281 -12.910156 8.363281 -12.488281 10.34375 -12.28125 C 12.53125 -12.0625 14.226562 -11.398438 15.4375 -10.296875 C 16.644531 -9.191406 17.25 -7.734375 17.25 -5.921875 C 17.25 -4.609375 16.890625 -3.476562 16.171875 -2.53125 C 15.460938 -1.59375 14.519531 -0.890625 13.34375 -0.421875 C 12.164062 0.046875 10.898438 0.28125 9.546875 0.28125 Z M 9.546875 0.28125 "/></g></g></g><g fill="#fb7a53" fill-opacity="1"><g transform="translate(169.455845, 56.644203)"><g><path d="M 4.171875 0 C 3.765625 0 3.425781 -0.132812 3.15625 -0.40625 C 2.882812 -0.6875 2.75 -1.023438 2.75 -1.421875 L 2.75 -19.984375 C 2.75 -20.410156 2.882812 -20.753906 3.15625 -21.015625 C 3.425781 -21.285156 3.765625 -21.421875 4.171875 -21.421875 L 16.5625 -21.421875 C 16.976562 -21.421875 17.316406 -21.296875 17.578125 -21.046875 C 17.835938 -20.796875 17.96875 -20.472656 17.96875 -20.078125 C 17.96875 -19.691406 17.835938 -19.378906 17.578125 -19.140625 C 17.316406 -18.898438 16.976562 -18.78125 16.5625 -18.78125 L 5.59375 -18.78125 L 5.59375 -12.125 L 13.46875 -12.125 C 13.863281 -12.125 14.191406 -12 14.453125 -11.75 C 14.722656 -11.5 14.859375 -11.179688 14.859375 -10.796875 C 14.859375 -10.421875 14.722656 -10.109375 14.453125 -9.859375 C 14.191406 -9.609375 13.863281 -9.484375 13.46875 -9.484375 L 5.59375 -9.484375 L 5.59375 -2.625 L 16.5625 -2.625 C 16.976562 -2.625 17.316406 -2.503906 17.578125 -2.265625 C 17.835938 -2.035156 17.96875 -1.726562 17.96875 -1.34375 C 17.96875 -0.9375 17.835938 -0.609375 17.578125 -0.359375 C 17.316406 -0.117188 16.976562 0 16.5625 0 Z M 4.171875 0 "/></g></g></g><g fill="#fb7a53" fill-opacity="1"><g transform="translate(188.651122, 56.644203)"><g><path d="M 18.09375 -11.109375 C 18.5 -11.109375 18.832031 -10.972656 19.09375 -10.703125 C 19.363281 -10.441406 19.5 -10.101562 19.5 -9.6875 L 19.5 -3.125 C 19.5 -2.6875 19.351562 -2.347656 19.0625 -2.109375 C 17.132812 -0.515625 14.894531 0.28125 12.34375 0.28125 C 10.382812 0.28125 8.59375 -0.203125 6.96875 -1.171875 C 5.351562 -2.140625 4.078125 -3.460938 3.140625 -5.140625 C 2.210938 -6.828125 1.75 -8.6875 1.75 -10.71875 C 1.75 -12.726562 2.210938 -14.566406 3.140625 -16.234375 C 4.078125 -17.910156 5.351562 -19.238281 6.96875 -20.21875 C 8.59375 -21.195312 10.382812 -21.6875 12.34375 -21.6875 C 13.726562 -21.6875 14.925781 -21.503906 15.9375 -21.140625 C 16.957031 -20.773438 17.988281 -20.171875 19.03125 -19.328125 C 19.25 -19.160156 19.394531 -18.988281 19.46875 -18.8125 C 19.539062 -18.644531 19.578125 -18.441406 19.578125 -18.203125 C 19.578125 -17.835938 19.441406 -17.535156 19.171875 -17.296875 C 18.910156 -17.066406 18.597656 -16.953125 18.234375 -16.953125 C 17.898438 -16.953125 17.585938 -17.066406 17.296875 -17.296875 C 16.546875 -17.941406 15.816406 -18.40625 15.109375 -18.6875 C 14.398438 -18.96875 13.476562 -19.109375 12.34375 -19.109375 C 10.914062 -19.109375 9.601562 -18.734375 8.40625 -17.984375 C 7.207031 -17.234375 6.253906 -16.210938 5.546875 -14.921875 C 4.847656 -13.640625 4.5 -12.238281 4.5 -10.71875 C 4.5 -9.1875 4.847656 -7.78125 5.546875 -6.5 C 6.253906 -5.21875 7.207031 -4.203125 8.40625 -3.453125 C 9.601562 -2.703125 10.914062 -2.328125 12.34375 -2.328125 C 13.875 -2.328125 15.34375 -2.785156 16.75 -3.703125 L 16.75 -8.578125 L 12.96875 -8.578125 C 12.550781 -8.578125 12.207031 -8.695312 11.9375 -8.9375 C 11.675781 -9.175781 11.546875 -9.476562 11.546875 -9.84375 C 11.546875 -10.207031 11.675781 -10.507812 11.9375 -10.75 C 12.207031 -10.988281 12.550781 -11.109375 12.96875 -11.109375 Z M 18.09375 -11.109375 "/></g></g></g><g fill="#fb7a53" fill-opacity="1"><g transform="translate(209.95788, 56.644203)"><g><path d="M 11.703125 0.4375 C 9.972656 0.4375 8.425781 0.113281 7.0625 -0.53125 C 5.695312 -1.1875 4.632812 -2.085938 3.875 -3.234375 C 3.125 -4.390625 2.75 -5.707031 2.75 -7.1875 L 2.75 -19.984375 C 2.75 -20.410156 2.882812 -20.753906 3.15625 -21.015625 C 3.425781 -21.285156 3.765625 -21.421875 4.171875 -21.421875 C 4.585938 -21.421875 4.925781 -21.285156 5.1875 -21.015625 C 5.457031 -20.753906 5.59375 -20.410156 5.59375 -19.984375 L 5.59375 -7.1875 C 5.59375 -6.21875 5.851562 -5.347656 6.375 -4.578125 C 6.894531 -3.804688 7.613281 -3.207031 8.53125 -2.78125 C 9.457031 -2.351562 10.515625 -2.140625 11.703125 -2.140625 C 12.835938 -2.140625 13.851562 -2.351562 14.75 -2.78125 C 15.644531 -3.207031 16.34375 -3.804688 16.84375 -4.578125 C 17.351562 -5.347656 17.609375 -6.21875 17.609375 -7.1875 L 17.609375 -19.984375 C 17.609375 -20.410156 17.742188 -20.753906 18.015625 -21.015625 C 18.285156 -21.285156 18.625 -21.421875 19.03125 -21.421875 C 19.4375 -21.421875 19.769531 -21.285156 20.03125 -21.015625 C 20.289062 -20.753906 20.421875 -20.410156 20.421875 -19.984375 L 20.421875 -7.1875 C 20.421875 -5.71875 20.050781 -4.40625 19.3125 -3.25 C 18.570312 -2.09375 17.539062 -1.1875 16.21875 -0.53125 C 14.894531 0.113281 13.390625 0.4375 11.703125 0.4375 Z M 11.703125 0.4375 "/></g></g></g><g fill="#fb7a53" fill-opacity="1"><g transform="translate(233.129327, 56.644203)"><g><path d="M 16.640625 -2.1875 C 16.828125 -1.894531 16.921875 -1.59375 16.921875 -1.28125 C 16.921875 -0.914062 16.796875 -0.609375 16.546875 -0.359375 C 16.296875 -0.117188 15.960938 0 15.546875 0 C 15.015625 0 14.601562 -0.226562 14.3125 -0.6875 L 9.59375 -8.25 L 5.59375 -8.25 L 5.59375 -1.421875 C 5.59375 -1.023438 5.457031 -0.6875 5.1875 -0.40625 C 4.925781 -0.132812 4.585938 0 4.171875 0 C 3.765625 0 3.425781 -0.132812 3.15625 -0.40625 C 2.882812 -0.6875 2.75 -1.023438 2.75 -1.421875 L 2.75 -19.984375 C 2.75 -20.410156 2.882812 -20.753906 3.15625 -21.015625 C 3.425781 -21.285156 3.765625 -21.421875 4.171875 -21.421875 L 9.109375 -21.421875 C 10.460938 -21.421875 11.671875 -21.132812 12.734375 -20.5625 C 13.804688 -20 14.640625 -19.203125 15.234375 -18.171875 C 15.828125 -17.148438 16.125 -15.984375 16.125 -14.671875 C 16.125 -13.367188 15.796875 -12.210938 15.140625 -11.203125 C 14.484375 -10.203125 13.585938 -9.445312 12.453125 -8.9375 Z M 9.109375 -10.890625 C 10.347656 -10.890625 11.367188 -11.238281 12.171875 -11.9375 C 12.972656 -12.644531 13.375 -13.554688 13.375 -14.671875 C 13.375 -15.878906 12.972656 -16.863281 12.171875 -17.625 C 11.367188 -18.394531 10.347656 -18.78125 9.109375 -18.78125 L 5.59375 -18.78125 L 5.59375 -10.890625 Z M 9.109375 -10.890625 "/></g></g></g><g fill="#fb7a53" fill-opacity="1"><g transform="translate(250.459927, 56.644203)"><g><path d="M 4.171875 0 C 3.765625 0 3.425781 -0.132812 3.15625 -0.40625 C 2.882812 -0.6875 2.75 -1.023438 2.75 -1.421875 L 2.75 -19.984375 C 2.75 -20.410156 2.882812 -20.753906 3.15625 -21.015625 C 3.425781 -21.285156 3.765625 -21.421875 4.171875 -21.421875 C 4.585938 -21.421875 4.925781 -21.285156 5.1875 -21.015625 C 5.457031 -20.753906 5.59375 -20.410156 5.59375 -19.984375 L 5.59375 -1.421875 C 5.59375 -1.023438 5.457031 -0.6875 5.1875 -0.40625 C 4.925781 -0.132812 4.585938 0 4.171875 0 Z M 4.171875 0 "/></g></g></g><g fill="#fb7a53" fill-opacity="1"><g transform="translate(258.796169, 56.644203)"><g><path d="M 4.171875 0 C 3.765625 0 3.425781 -0.132812 3.15625 -0.40625 C 2.882812 -0.6875 2.75 -1.023438 2.75 -1.421875 L 2.75 -19.984375 C 2.75 -20.410156 2.882812 -20.753906 3.15625 -21.015625 C 3.425781 -21.285156 3.765625 -21.421875 4.171875 -21.421875 L 9.125 -21.421875 C 11.195312 -21.421875 13.035156 -20.960938 14.640625 -20.046875 C 16.253906 -19.128906 17.507812 -17.863281 18.40625 -16.25 C 19.300781 -14.632812 19.75 -12.789062 19.75 -10.71875 C 19.75 -8.65625 19.300781 -6.8125 18.40625 -5.1875 C 17.507812 -3.5625 16.253906 -2.289062 14.640625 -1.375 C 13.035156 -0.457031 11.195312 0 9.125 0 Z M 9.125 -2.515625 C 10.644531 -2.515625 12.003906 -2.863281 13.203125 -3.5625 C 14.398438 -4.257812 15.332031 -5.234375 16 -6.484375 C 16.664062 -7.734375 17 -9.144531 17 -10.71875 C 17 -12.289062 16.664062 -13.695312 16 -14.9375 C 15.332031 -16.1875 14.398438 -17.15625 13.203125 -17.84375 C 12.003906 -18.539062 10.644531 -18.890625 9.125 -18.890625 L 5.59375 -18.890625 L 5.59375 -2.515625 Z M 9.125 -2.515625 "/></g></g></g><g fill="#fb7a53" fill-opacity="1"><g transform="translate(280.267458, 56.644203)"><g><path d="M 18.75 -2 C 18.84375 -1.757812 18.890625 -1.5625 18.890625 -1.40625 C 18.890625 -1.019531 18.753906 -0.6875 18.484375 -0.40625 C 18.210938 -0.132812 17.875 0 17.46875 0 C 17.195312 0 16.9375 -0.078125 16.6875 -0.234375 C 16.4375 -0.390625 16.257812 -0.601562 16.15625 -0.875 L 14.609375 -4.71875 L 4.765625 -4.71875 L 3.203125 -0.875 C 3.078125 -0.601562 2.894531 -0.390625 2.65625 -0.234375 C 2.414062 -0.078125 2.160156 0 1.890625 0 C 1.484375 0 1.148438 -0.140625 0.890625 -0.421875 C 0.628906 -0.703125 0.5 -1.035156 0.5 -1.421875 C 0.5 -1.609375 0.539062 -1.820312 0.625 -2.0625 L 8.34375 -20.453125 C 8.613281 -21.097656 9.0625 -21.421875 9.6875 -21.421875 C 10.34375 -21.421875 10.789062 -21.097656 11.03125 -20.453125 Z M 5.734375 -7.078125 L 13.65625 -7.078125 L 9.734375 -16.84375 Z M 5.734375 -7.078125 "/></g></g></g><g fill="#fb7a53" fill-opacity="1"><g transform="translate(299.544995, 56.644203)"><g><path d="M 4.171875 0 C 3.765625 0 3.425781 -0.132812 3.15625 -0.40625 C 2.882812 -0.6875 2.75 -1.023438 2.75 -1.421875 L 2.75 -19.984375 C 2.75 -20.410156 2.882812 -20.753906 3.15625 -21.015625 C 3.425781 -21.285156 3.765625 -21.421875 4.171875 -21.421875 L 9.125 -21.421875 C 11.195312 -21.421875 13.035156 -20.960938 14.640625 -20.046875 C 16.253906 -19.128906 17.507812 -17.863281 18.40625 -16.25 C 19.300781 -14.632812 19.75 -12.789062 19.75 -10.71875 C 19.75 -8.65625 19.300781 -6.8125 18.40625 -5.1875 C 17.507812 -3.5625 16.253906 -2.289062 14.640625 -1.375 C 13.035156 -0.457031 11.195312 0 9.125 0 Z M 9.125 -2.515625 C 10.644531 -2.515625 12.003906 -2.863281 13.203125 -3.5625 C 14.398438 -4.257812 15.332031 -5.234375 16 -6.484375 C 16.664062 -7.734375 17 -9.144531 17 -10.71875 C 17 -12.289062 16.664062 -13.695312 16 -14.9375 C 15.332031 -16.1875 14.398438 -17.15625 13.203125 -17.84375 C 12.003906 -18.539062 10.644531 -18.890625 9.125 -18.890625 L 5.59375 -18.890625 L 5.59375 -2.515625 Z M 9.125 -2.515625 "/></g></g></g><g fill="#545454" fill-opacity="1"><g transform="translate(194.325, 88.894201)"><g><path d="M 4.171875 0 C 3.765625 0 3.425781 -0.132812 3.15625 -0.40625 C 2.882812 -0.6875 2.75 -1.023438 2.75 -1.421875 L 2.75 -19.984375 C 2.75 -20.410156 2.882812 -20.753906 3.15625 -21.015625 C 3.425781 -21.285156 3.765625 -21.421875 4.171875 -21.421875 L 16.5625 -21.421875 C 16.976562 -21.421875 17.316406 -21.296875 17.578125 -21.046875 C 17.835938 -20.796875 17.96875 -20.472656 17.96875 -20.078125 C 17.96875 -19.691406 17.835938 -19.378906 17.578125 -19.140625 C 17.316406 -18.898438 16.976562 -18.78125 16.5625 -18.78125 L 5.59375 -18.78125 L 5.59375 -12.125 L 13.46875 -12.125 C 13.863281 -12.125 14.191406 -12 14.453125 -11.75 C 14.722656 -11.5 14.859375 -11.179688 14.859375 -10.796875 C 14.859375 -10.421875 14.722656 -10.109375 14.453125 -9.859375 C 14.191406 -9.609375 13.863281 -9.484375 13.46875 -9.484375 L 5.59375 -9.484375 L 5.59375 -2.625 L 16.5625 -2.625 C 16.976562 -2.625 17.316406 -2.503906 17.578125 -2.265625 C 17.835938 -2.035156 17.96875 -1.726562 17.96875 -1.34375 C 17.96875 -0.9375 17.835938 -0.609375 17.578125 -0.359375 C 17.316406 -0.117188 16.976562 0 16.5625 0 Z M 4.171875 0 "/></g></g></g><g fill="#fb7a53" fill-opacity="1"><g transform="translate(213.508593, 88.894201)"><g><path d="M 9.546875 0.28125 C 7.773438 0.28125 6.160156 -0.117188 4.703125 -0.921875 C 3.242188 -1.734375 2.242188 -2.785156 1.703125 -4.078125 C 1.609375 -4.304688 1.5625 -4.492188 1.5625 -4.640625 C 1.5625 -4.910156 1.660156 -5.148438 1.859375 -5.359375 C 2.066406 -5.566406 2.34375 -5.707031 2.6875 -5.78125 C 2.738281 -5.800781 2.832031 -5.8125 2.96875 -5.8125 C 3.257812 -5.8125 3.535156 -5.722656 3.796875 -5.546875 C 4.066406 -5.378906 4.265625 -5.148438 4.390625 -4.859375 C 4.710938 -4.140625 5.359375 -3.53125 6.328125 -3.03125 C 7.296875 -2.539062 8.367188 -2.296875 9.546875 -2.296875 C 10.910156 -2.296875 12.066406 -2.613281 13.015625 -3.25 C 13.972656 -3.882812 14.453125 -4.75 14.453125 -5.84375 C 14.453125 -6.882812 14.046875 -7.773438 13.234375 -8.515625 C 12.429688 -9.253906 11.207031 -9.707031 9.5625 -9.875 C 7.300781 -10.09375 5.519531 -10.753906 4.21875 -11.859375 C 2.925781 -12.960938 2.28125 -14.347656 2.28125 -16.015625 C 2.28125 -17.179688 2.613281 -18.1875 3.28125 -19.03125 C 3.945312 -19.882812 4.859375 -20.535156 6.015625 -20.984375 C 7.179688 -21.429688 8.484375 -21.65625 9.921875 -21.65625 C 11.492188 -21.65625 12.816406 -21.335938 13.890625 -20.703125 C 14.972656 -20.066406 15.890625 -19.15625 16.640625 -17.96875 C 16.859375 -17.613281 16.96875 -17.28125 16.96875 -16.96875 C 16.96875 -16.570312 16.785156 -16.242188 16.421875 -15.984375 C 16.222656 -15.859375 15.988281 -15.796875 15.71875 -15.796875 C 15.4375 -15.796875 15.175781 -15.863281 14.9375 -16 C 14.707031 -16.132812 14.523438 -16.320312 14.390625 -16.5625 C 13.898438 -17.382812 13.285156 -18.007812 12.546875 -18.4375 C 11.804688 -18.863281 10.867188 -19.078125 9.734375 -19.078125 C 8.347656 -19.078125 7.222656 -18.804688 6.359375 -18.265625 C 5.503906 -17.734375 5.078125 -16.957031 5.078125 -15.9375 C 5.078125 -14.976562 5.457031 -14.179688 6.21875 -13.546875 C 6.988281 -12.910156 8.363281 -12.488281 10.34375 -12.28125 C 12.53125 -12.0625 14.226562 -11.398438 15.4375 -10.296875 C 16.644531 -9.191406 17.25 -7.734375 17.25 -5.921875 C 17.25 -4.609375 16.890625 -3.476562 16.171875 -2.53125 C 15.460938 -1.59375 14.519531 -0.890625 13.34375 -0.421875 C 12.164062 0.046875 10.898438 0.28125 9.546875 0.28125 Z M 9.546875 0.28125 "/></g></g></g><g fill="#545454" fill-opacity="1"><g transform="translate(122.172661, 121.144199)"><g><path d="M 4.140625 0 C 3.734375 0 3.398438 -0.132812 3.140625 -0.40625 C 2.878906 -0.6875 2.75 -1.023438 2.75 -1.421875 L 2.75 -19.984375 C 2.75 -20.390625 2.882812 -20.726562 3.15625 -21 C 3.425781 -21.28125 3.753906 -21.421875 4.140625 -21.421875 C 4.546875 -21.421875 4.882812 -21.28125 5.15625 -21 C 5.425781 -20.726562 5.5625 -20.390625 5.5625 -19.984375 L 5.5625 -2.859375 L 15.5 -2.859375 C 15.894531 -2.859375 16.226562 -2.71875 16.5 -2.4375 C 16.78125 -2.164062 16.921875 -1.828125 16.921875 -1.421875 C 16.921875 -1.023438 16.78125 -0.6875 16.5 -0.40625 C 16.226562 -0.132812 15.894531 0 15.5 0 Z M 4.140625 0 "/></g></g></g><g fill="#545454" fill-opacity="1"><g transform="translate(139.777472, 121.144199)"><g><path d="M 12.640625 0.28125 C 10.515625 0.28125 8.625 -0.179688 6.96875 -1.109375 C 5.320312 -2.046875 4.039062 -3.351562 3.125 -5.03125 C 2.207031 -6.707031 1.75 -8.601562 1.75 -10.71875 C 1.75 -12.84375 2.207031 -14.734375 3.125 -16.390625 C 4.039062 -18.054688 5.320312 -19.351562 6.96875 -20.28125 C 8.625 -21.21875 10.515625 -21.6875 12.640625 -21.6875 C 14.742188 -21.6875 16.625 -21.21875 18.28125 -20.28125 C 19.9375 -19.351562 21.222656 -18.054688 22.140625 -16.390625 C 23.066406 -14.734375 23.53125 -12.84375 23.53125 -10.71875 C 23.53125 -8.601562 23.066406 -6.707031 22.140625 -5.03125 C 21.222656 -3.351562 19.941406 -2.046875 18.296875 -1.109375 C 16.648438 -0.179688 14.765625 0.28125 12.640625 0.28125 Z M 12.640625 -2.296875 C 14.191406 -2.296875 15.585938 -2.664062 16.828125 -3.40625 C 18.078125 -4.15625 19.046875 -5.164062 19.734375 -6.4375 C 20.429688 -7.71875 20.78125 -9.144531 20.78125 -10.71875 C 20.78125 -12.289062 20.429688 -13.71875 19.734375 -15 C 19.046875 -16.28125 18.082031 -17.285156 16.84375 -18.015625 C 15.613281 -18.742188 14.210938 -19.109375 12.640625 -19.109375 C 11.066406 -19.109375 9.660156 -18.742188 8.421875 -18.015625 C 7.191406 -17.285156 6.226562 -16.28125 5.53125 -15 C 4.84375 -13.71875 4.5 -12.289062 4.5 -10.71875 C 4.5 -9.144531 4.84375 -7.71875 5.53125 -6.4375 C 6.226562 -5.164062 7.195312 -4.15625 8.4375 -3.40625 C 9.6875 -2.664062 11.085938 -2.296875 12.640625 -2.296875 Z M 12.640625 -2.296875 "/></g></g></g><g fill="#545454" fill-opacity="1"><g transform="translate(165.032979, 121.144199)"><g/></g></g><g fill="#545454" fill-opacity="1"><g transform="translate(173.067577, 121.144199)"><g><path d="M 4.171875 0 C 3.765625 0 3.425781 -0.132812 3.15625 -0.40625 C 2.882812 -0.6875 2.75 -1.023438 2.75 -1.421875 L 2.75 -19.984375 C 2.75 -20.410156 2.882812 -20.753906 3.15625 -21.015625 C 3.425781 -21.285156 3.765625 -21.421875 4.171875 -21.421875 L 9.65625 -21.421875 C 11.007812 -21.421875 12.21875 -21.117188 13.28125 -20.515625 C 14.351562 -19.910156 15.1875 -19.066406 15.78125 -17.984375 C 16.375 -16.910156 16.671875 -15.6875 16.671875 -14.3125 C 16.671875 -12.976562 16.375 -11.789062 15.78125 -10.75 C 15.1875 -9.707031 14.351562 -8.894531 13.28125 -8.3125 C 12.21875 -7.726562 11.007812 -7.4375 9.65625 -7.4375 L 5.59375 -7.4375 L 5.59375 -1.421875 C 5.59375 -1.023438 5.457031 -0.6875 5.1875 -0.40625 C 4.925781 -0.132812 4.585938 0 4.171875 0 Z M 9.65625 -10.0625 C 10.894531 -10.0625 11.914062 -10.457031 12.71875 -11.25 C 13.53125 -12.050781 13.9375 -13.070312 13.9375 -14.3125 C 13.9375 -15.613281 13.53125 -16.679688 12.71875 -17.515625 C 11.914062 -18.359375 10.894531 -18.78125 9.65625 -18.78125 L 5.59375 -18.78125 L 5.59375 -10.0625 Z M 9.65625 -10.0625 "/></g></g></g><g fill="#545454" fill-opacity="1"><g transform="translate(190.151374, 121.144199)"><g><path d="M 16.640625 -2.1875 C 16.828125 -1.894531 16.921875 -1.59375 16.921875 -1.28125 C 16.921875 -0.914062 16.796875 -0.609375 16.546875 -0.359375 C 16.296875 -0.117188 15.960938 0 15.546875 0 C 15.015625 0 14.601562 -0.226562 14.3125 -0.6875 L 9.59375 -8.25 L 5.59375 -8.25 L 5.59375 -1.421875 C 5.59375 -1.023438 5.457031 -0.6875 5.1875 -0.40625 C 4.925781 -0.132812 4.585938 0 4.171875 0 C 3.765625 0 3.425781 -0.132812 3.15625 -0.40625 C 2.882812 -0.6875 2.75 -1.023438 2.75 -1.421875 L 2.75 -19.984375 C 2.75 -20.410156 2.882812 -20.753906 3.15625 -21.015625 C 3.425781 -21.285156 3.765625 -21.421875 4.171875 -21.421875 L 9.109375 -21.421875 C 10.460938 -21.421875 11.671875 -21.132812 12.734375 -20.5625 C 13.804688 -20 14.640625 -19.203125 15.234375 -18.171875 C 15.828125 -17.148438 16.125 -15.984375 16.125 -14.671875 C 16.125 -13.367188 15.796875 -12.210938 15.140625 -11.203125 C 14.484375 -10.203125 13.585938 -9.445312 12.453125 -8.9375 Z M 9.109375 -10.890625 C 10.347656 -10.890625 11.367188 -11.238281 12.171875 -11.9375 C 12.972656 -12.644531 13.375 -13.554688 13.375 -14.671875 C 13.375 -15.878906 12.972656 -16.863281 12.171875 -17.625 C 11.367188 -18.394531 10.347656 -18.78125 9.109375 -18.78125 L 5.59375 -18.78125 L 5.59375 -10.890625 Z M 9.109375 -10.890625 "/></g></g></g><g fill="#545454" fill-opacity="1"><g transform="translate(207.481974, 121.144199)"><g><path d="M 4.171875 0 C 3.765625 0 3.425781 -0.132812 3.15625 -0.40625 C 2.882812 -0.6875 2.75 -1.023438 2.75 -1.421875 L 2.75 -19.984375 C 2.75 -20.410156 2.882812 -20.753906 3.15625 -21.015625 C 3.425781 -21.285156 3.765625 -21.421875 4.171875 -21.421875 C 4.585938 -21.421875 4.925781 -21.285156 5.1875 -21.015625 C 5.457031 -20.753906 5.59375 -20.410156 5.59375 -19.984375 L 5.59375 -1.421875 C 5.59375 -1.023438 5.457031 -0.6875 5.1875 -0.40625 C 4.925781 -0.132812 4.585938 0 4.171875 0 Z M 4.171875 0 "/></g></g></g><g fill="#545454" fill-opacity="1"><g transform="translate(215.818216, 121.144199)"><g><path d="M 22.765625 -21.421875 C 23.160156 -21.421875 23.492188 -21.28125 23.765625 -21 C 24.046875 -20.726562 24.1875 -20.390625 24.1875 -19.984375 L 24.1875 -1.421875 C 24.1875 -1.023438 24.046875 -0.6875 23.765625 -0.40625 C 23.484375 -0.132812 23.148438 0 22.765625 0 C 22.359375 0 22.015625 -0.132812 21.734375 -0.40625 C 21.460938 -0.6875 21.328125 -1.023438 21.328125 -1.421875 L 21.328125 -15.046875 L 14.703125 -1.53125 C 14.390625 -1.0625 13.976562 -0.828125 13.46875 -0.828125 C 12.863281 -0.828125 12.421875 -1.109375 12.140625 -1.671875 L 5.59375 -14.8125 L 5.59375 -1.421875 C 5.59375 -1.023438 5.453125 -0.6875 5.171875 -0.40625 C 4.898438 -0.132812 4.566406 0 4.171875 0 C 3.765625 0 3.425781 -0.132812 3.15625 -0.40625 C 2.882812 -0.6875 2.75 -1.023438 2.75 -1.421875 L 2.75 -19.984375 C 2.75 -20.390625 2.882812 -20.726562 3.15625 -21 C 3.425781 -21.28125 3.765625 -21.421875 4.171875 -21.421875 C 4.710938 -21.421875 5.128906 -21.164062 5.421875 -20.65625 L 13.578125 -4.328125 L 21.5 -20.65625 C 21.789062 -21.164062 22.210938 -21.421875 22.765625 -21.421875 Z M 22.765625 -21.421875 "/></g></g></g><g fill="#545454" fill-opacity="1"><g transform="translate(242.746449, 121.144199)"><g><path d="M 4.171875 0 C 3.765625 0 3.425781 -0.132812 3.15625 -0.40625 C 2.882812 -0.6875 2.75 -1.023438 2.75 -1.421875 L 2.75 -19.984375 C 2.75 -20.410156 2.882812 -20.753906 3.15625 -21.015625 C 3.425781 -21.285156 3.765625 -21.421875 4.171875 -21.421875 L 16.5625 -21.421875 C 16.976562 -21.421875 17.316406 -21.296875 17.578125 -21.046875 C 17.835938 -20.796875 17.96875 -20.472656 17.96875 -20.078125 C 17.96875 -19.691406 17.835938 -19.378906 17.578125 -19.140625 C 17.316406 -18.898438 16.976562 -18.78125 16.5625 -18.78125 L 5.59375 -18.78125 L 5.59375 -12.125 L 13.46875 -12.125 C 13.863281 -12.125 14.191406 -12 14.453125 -11.75 C 14.722656 -11.5 14.859375 -11.179688 14.859375 -10.796875 C 14.859375 -10.421875 14.722656 -10.109375 14.453125 -9.859375 C 14.191406 -9.609375 13.863281 -9.484375 13.46875 -9.484375 L 5.59375 -9.484375 L 5.59375 -2.625 L 16.5625 -2.625 C 16.976562 -2.625 17.316406 -2.503906 17.578125 -2.265625 C 17.835938 -2.035156 17.96875 -1.726562 17.96875 -1.34375 C 17.96875 -0.9375 17.835938 -0.609375 17.578125 -0.359375 C 17.316406 -0.117188 16.976562 0 16.5625 0 Z M 4.171875 0 "/></g></g></g><g fill="#545454" fill-opacity="1"><g transform="translate(261.941726, 121.144199)"><g><path d="M 16.640625 -2.1875 C 16.828125 -1.894531 16.921875 -1.59375 16.921875 -1.28125 C 16.921875 -0.914062 16.796875 -0.609375 16.546875 -0.359375 C 16.296875 -0.117188 15.960938 0 15.546875 0 C 15.015625 0 14.601562 -0.226562 14.3125 -0.6875 L 9.59375 -8.25 L 5.59375 -8.25 L 5.59375 -1.421875 C 5.59375 -1.023438 5.457031 -0.6875 5.1875 -0.40625 C 4.925781 -0.132812 4.585938 0 4.171875 0 C 3.765625 0 3.425781 -0.132812 3.15625 -0.40625 C 2.882812 -0.6875 2.75 -1.023438 2.75 -1.421875 L 2.75 -19.984375 C 2.75 -20.410156 2.882812 -20.753906 3.15625 -21.015625 C 3.425781 -21.285156 3.765625 -21.421875 4.171875 -21.421875 L 9.109375 -21.421875 C 10.460938 -21.421875 11.671875 -21.132812 12.734375 -20.5625 C 13.804688 -20 14.640625 -19.203125 15.234375 -18.171875 C 15.828125 -17.148438 16.125 -15.984375 16.125 -14.671875 C 16.125 -13.367188 15.796875 -12.210938 15.140625 -11.203125 C 14.484375 -10.203125 13.585938 -9.445312 12.453125 -8.9375 Z M 9.109375 -10.890625 C 10.347656 -10.890625 11.367188 -11.238281 12.171875 -11.9375 C 12.972656 -12.644531 13.375 -13.554688 13.375 -14.671875 C 13.375 -15.878906 12.972656 -16.863281 12.171875 -17.625 C 11.367188 -18.394531 10.347656 -18.78125 9.109375 -18.78125 L 5.59375 -18.78125 L 5.59375 -10.890625 Z M 9.109375 -10.890625 "/></g></g></g><g fill="#545454" fill-opacity="1"><g transform="translate(279.272326, 121.144199)"><g><path d="M 12.640625 0.28125 C 10.515625 0.28125 8.625 -0.179688 6.96875 -1.109375 C 5.320312 -2.046875 4.039062 -3.351562 3.125 -5.03125 C 2.207031 -6.707031 1.75 -8.601562 1.75 -10.71875 C 1.75 -12.84375 2.207031 -14.734375 3.125 -16.390625 C 4.039062 -18.054688 5.320312 -19.351562 6.96875 -20.28125 C 8.625 -21.21875 10.515625 -21.6875 12.640625 -21.6875 C 14.742188 -21.6875 16.625 -21.21875 18.28125 -20.28125 C 19.9375 -19.351562 21.222656 -18.054688 22.140625 -16.390625 C 23.066406 -14.734375 23.53125 -12.84375 23.53125 -10.71875 C 23.53125 -8.601562 23.066406 -6.707031 22.140625 -5.03125 C 21.222656 -3.351562 19.941406 -2.046875 18.296875 -1.109375 C 16.648438 -0.179688 14.765625 0.28125 12.640625 0.28125 Z M 12.640625 -2.296875 C 14.191406 -2.296875 15.585938 -2.664062 16.828125 -3.40625 C 18.078125 -4.15625 19.046875 -5.164062 19.734375 -6.4375 C 20.429688 -7.71875 20.78125 -9.144531 20.78125 -10.71875 C 20.78125 -12.289062 20.429688 -13.71875 19.734375 -15 C 19.046875 -16.28125 18.082031 -17.285156 16.84375 -18.015625 C 15.613281 -18.742188 14.210938 -19.109375 12.640625 -19.109375 C 11.066406 -19.109375 9.660156 -18.742188 8.421875 -18.015625 C 7.191406 -17.285156 6.226562 -16.28125 5.53125 -15 C 4.84375 -13.71875 4.5 -12.289062 4.5 -10.71875 C 4.5 -9.144531 4.84375 -7.71875 5.53125 -6.4375 C 6.226562 -5.164062 7.195312 -4.15625 8.4375 -3.40625 C 9.6875 -2.664062 11.085938 -2.296875 12.640625 -2.296875 Z M 12.640625 -2.296875 "/></g></g></g></svg>